{
  "source": "C:\\Users\\Peter\\Desktop\\stuff\\MIUN\\quantitative_research\\video_compression\\videos\\HEVC_CLASS_B\\BQTerrace_1920x1080_60.y4m",
  "output": "C:\\Users\\Peter\\Desktop\\stuff\\MIUN\\quantitative_research\\video_compression\\compressed_videos\\HEVC_CLASS_B\\vp9\\1.5\\BQTerrace_1920x1080_60_vp9.webm",
  "codec": "vp9",
  "ok": "Input #0, yuv4mpegpipe, from 'C:\\Users\\Peter\\Desktop\\stuff\\MIUN\\quantitative_research\\video_compression\\videos\\HEVC_CLASS_B\\BQTerrace_1920x1080_60.y4m':\n  Duration: 00:00:10.00, start: 0.000000, bitrate: 1492994 kb/s\n  Stream #0:0: Video: rawvideo (I420 / 0x30323449), yuv420p(progressive), 1920x1080, 60 fps, 60 tbr, 60 tbn\n[out#0/webm @ 000002318c699b80] Codec AVOption b:a (set bitrate (in bits/s)) has not been used for any stream. The most likely reason is either wrong type (e.g. a video option with no video streams) or that it is a private option of some decoder which was not actually used for any stream.\nStream mapping:\n  Stream #0:0 -> #0:0 (rawvideo (native) -> vp9 (libvpx-vp9))\nPress [q] to stop, [?] for help\n[libvpx-vp9 @ 000002318c69bfc0] v1.15.2-100-g40561f514\nOutput #0, webm, to 'C:\\Users\\Peter\\Desktop\\stuff\\MIUN\\quantitative_research\\video_compression\\compressed_videos\\HEVC_CLASS_B\\vp9\\1.5\\BQTerrace_1920x1080_60_vp9.webm':\n  Metadata:\n    encoder         : Lavf62.3.100\n  Stream #0:0: Video: vp9, yuv420p(tv, progressive), 1920x1080, q=2-31, 1500 kb/s, 60 fps, 1k tbn\n    Metadata:\n      encoder         : Lavc62.11.100 libvpx-vp9\n    Side data:\n      cpb: bitrate max/min/avg: 0/0/0 buffer size: 1500000 vbv_delay: N/A\nframe=    0 fps=0.0 q=0.0 size=       0KiB time=N/A bitrate=N/A speed=N/A elapsed=0:00:00.52    \nframe=    0 fps=0.0 q=0.0 size=       0KiB time=N/A bitrate=N/A speed=N/A elapsed=0:00:01.06    \nframe=    4 fps=2.5 q=56.0 size=       0KiB time=00:00:00.06 bitrate=  57.7kbits/s speed=0.0416x elapsed=0:00:01.60    \nframe=    8 fps=3.8 q=52.0 size=       0KiB time=00:00:00.13 bitrate=  28.9kbits/s speed=0.0626x elapsed=0:00:02.12    \nframe=   11 fps=4.1 q=52.0 size=       0KiB time=00:00:00.18 bitrate=  21.0kbits/s speed=0.0689x elapsed=0:00:02.66    \nframe=   13 fps=4.1 q=45.0 size=       0KiB time=00:00:00.21 bitrate=  17.8kbits/s speed=0.0682x elapsed=0:00:03.17    \nframe=   16 fps=4.3 q=50.0 size=       0KiB time=00:00:00.26 bitrate=  14.4kbits/s speed=0.0716x elapsed=0:00:03.72    \nframe=   18 fps=4.2 q=51.0 size=       0KiB time=00:00:00.30 bitrate=  12.8kbits/s speed=0.0703x elapsed=0:00:04.26    \nframe=   21 fps=4.4 q=52.0 size=       0KiB time=00:00:00.35 bitrate=  11.0kbits/s speed=0.0731x elapsed=0:00:04.78    \nframe=   24 fps=4.5 q=52.0 size=       0KiB time=00:00:00.38 bitrate=  10.0kbits/s speed=0.0724x elapsed=0:00:05.29    \nframe=   26 fps=4.5 q=52.0 size=       0KiB time=00:00:00.43 bitrate=   8.9kbits/s speed=0.0743x elapsed=0:00:05.83    \nframe=   28 fps=4.4 q=50.0 size=       0KiB time=00:00:00.46 bitrate=   8.2kbits/s speed=0.0732x elapsed=0:00:06.37    \nframe=   31 fps=4.5 q=51.0 size=       0KiB time=00:00:00.51 bitrate=   7.4kbits/s speed=0.0747x elapsed=0:00:06.91    \nframe=   34 fps=4.6 q=52.0 size=       0KiB time=00:00:00.56 bitrate=   6.8kbits/s speed=0.0763x elapsed=0:00:07.42    \nframe=   36 fps=4.5 q=52.0 size=       0KiB time=00:00:00.60 bitrate=   6.4kbits/s speed=0.0753x elapsed=0:00:07.97    \nframe=   38 fps=4.5 q=52.0 size=       0KiB time=00:00:00.63 bitrate=   6.1kbits/s speed=0.0745x elapsed=0:00:08.49    \nframe=   41 fps=4.5 q=50.0 size=       0KiB time=00:00:00.68 bitrate=   5.6kbits/s speed=0.0757x elapsed=0:00:09.03    \nframe=   44 fps=4.6 q=51.0 size=       0KiB time=00:00:00.73 bitrate=   5.2kbits/s speed=0.0768x elapsed=0:00:09.55    \nframe=   46 fps=4.6 q=52.0 size=       0KiB time=00:00:00.76 bitrate=   5.0kbits/s speed=0.0761x elapsed=0:00:10.07    \nframe=   48 fps=4.5 q=52.0 size=       0KiB time=00:00:00.80 bitrate=   4.8kbits/s speed=0.0753x elapsed=0:00:10.62    \nframe=   51 fps=4.6 q=51.0 size=       0KiB time=00:00:00.85 bitrate=   4.5kbits/s speed=0.0762x elapsed=0:00:11.15    \nframe=   54 fps=4.6 q=51.0 size=       0KiB time=00:00:00.90 bitrate=   4.3kbits/s speed=0.0771x elapsed=0:00:11.67    \nframe=   57 fps=4.7 q=52.0 size=       0KiB time=00:00:00.95 bitrate=   4.1kbits/s speed=0.0778x elapsed=0:00:12.21    \nframe=   60 fps=4.7 q=52.0 size=       0KiB time=00:00:01.00 bitrate=   3.8kbits/s speed=0.0782x elapsed=0:00:12.78    \nframe=   63 fps=4.7 q=49.0 size=       0KiB time=00:00:01.05 bitrate=   3.7kbits/s speed=0.0787x elapsed=0:00:13.33    \nframe=   65 fps=4.7 q=49.0 size=       0KiB time=00:00:01.08 bitrate=   3.6kbits/s speed=0.0782x elapsed=0:00:13.86    \nframe=   68 fps=4.7 q=50.0 size=       0KiB time=00:00:01.13 bitrate=   3.4kbits/s speed=0.0786x elapsed=0:00:14.41    \nframe=   71 fps=4.7 q=52.0 size=       0KiB time=00:00:01.18 bitrate=   3.3kbits/s speed=0.0789x elapsed=0:00:15.00    \nframe=   72 fps=4.6 q=52.0 size=       0KiB time=00:00:01.20 bitrate=   3.2kbits/s speed=0.077x elapsed=0:00:15.57    \nframe=   76 fps=4.7 q=50.0 size=       0KiB time=00:00:01.26 bitrate=   3.0kbits/s speed=0.0785x elapsed=0:00:16.13    \nframe=   79 fps=4.7 q=52.0 size=       0KiB time=00:00:01.31 bitrate=   2.9kbits/s speed=0.0788x elapsed=0:00:16.71    \nframe=   82 fps=4.8 q=53.0 size=       0KiB time=00:00:01.36 bitrate=   2.8kbits/s speed=0.0793x elapsed=0:00:17.22    \nframe=   84 fps=4.7 q=53.0 size=       0KiB time=00:00:01.40 bitrate=   2.7kbits/s speed=0.0786x elapsed=0:00:17.81    \nframe=   87 fps=4.7 q=47.0 size=       0KiB time=00:00:01.45 bitrate=   2.7kbits/s speed=0.0788x elapsed=0:00:18.41    \nframe=   90 fps=4.7 q=49.0 size=       0KiB time=00:00:01.50 bitrate=   2.6kbits/s speed=0.0789x elapsed=0:00:19.00    \nframe=   93 fps=4.7 q=49.0 size=       0KiB time=00:00:01.55 bitrate=   2.5kbits/s speed=0.0788x elapsed=0:00:19.67    \nframe=   95 fps=4.7 q=50.0 size=       0KiB time=00:00:01.58 bitrate=   2.4kbits/s speed=0.0784x elapsed=0:00:20.20    \nframe=   98 fps=4.7 q=53.0 size=       0KiB time=00:00:01.63 bitrate=   2.4kbits/s speed=0.0787x elapsed=0:00:20.74    \nframe=  101 fps=4.8 q=51.0 size=       0KiB time=00:00:01.68 bitrate=   2.3kbits/s speed=0.0792x elapsed=0:00:21.25    \nframe=  104 fps=4.8 q=52.0 size=       0KiB time=00:00:01.73 bitrate=   2.2kbits/s speed=0.0796x elapsed=0:00:21.77    \nframe=  107 fps=4.8 q=52.0 size=       0KiB time=00:00:01.78 bitrate=   2.2kbits/s speed=0.08x elapsed=0:00:22.28    \nframe=  109 fps=4.8 q=44.0 size=       0KiB time=00:00:01.81 bitrate=   2.1kbits/s speed=0.0796x elapsed=0:00:22.81    \nframe=  111 fps=4.8 q=49.0 size=       0KiB time=00:00:01.85 bitrate=   2.1kbits/s speed=0.0793x elapsed=0:00:23.33    \nframe=  114 fps=4.8 q=50.0 size=       0KiB time=00:00:01.88 bitrate=   2.0kbits/s speed=0.0789x elapsed=0:00:23.86    \nframe=  116 fps=4.8 q=50.0 size=       0KiB time=00:00:01.93 bitrate=   2.0kbits/s speed=0.0792x elapsed=0:00:24.40    \nframe=  118 fps=4.7 q=49.0 size=       0KiB time=00:00:01.96 bitrate=   2.0kbits/s speed=0.0788x elapsed=0:00:24.96    \nframe=  120 fps=4.7 q=50.0 size=       0KiB time=00:00:02.00 bitrate=   1.9kbits/s speed=0.0784x elapsed=0:00:25.52    \nframe=  123 fps=4.7 q=46.0 size=       0KiB time=00:00:02.05 bitrate=   1.9kbits/s speed=0.0786x elapsed=0:00:26.09    \nframe=  125 fps=4.7 q=47.0 size=       0KiB time=00:00:02.08 bitrate=   1.8kbits/s speed=0.0783x elapsed=0:00:26.62    \nframe=  127 fps=4.7 q=48.0 size=       0KiB time=00:00:02.11 bitrate=   1.8kbits/s speed=0.078x elapsed=0:00:27.13    \nframe=  128 fps=4.6 q=49.0 size=       0KiB time=00:00:02.13 bitrate=   1.8kbits/s speed=0.077x elapsed=0:00:27.71    \nframe=  131 fps=4.6 q=47.0 size=     256KiB time=00:00:02.18 bitrate= 960.5kbits/s speed=0.0771x elapsed=0:00:28.30    \nframe=  134 fps=4.6 q=49.0 size=     256KiB time=00:00:02.23 bitrate= 939.0kbits/s speed=0.0775x elapsed=0:00:28.83    \nframe=  136 fps=4.6 q=49.0 size=     256KiB time=00:00:02.26 bitrate= 925.2kbits/s speed=0.0772x elapsed=0:00:29.37    \nframe=  139 fps=4.6 q=49.0 size=     256KiB time=00:00:02.31 bitrate= 905.2kbits/s speed=0.0774x elapsed=0:00:29.91    \nframe=  141 fps=4.6 q=48.0 size=     256KiB time=00:00:02.35 bitrate= 892.4kbits/s speed=0.0769x elapsed=0:00:30.55    \nframe=  144 fps=4.6 q=47.0 size=     256KiB time=00:00:02.40 bitrate= 873.8kbits/s speed=0.077x elapsed=0:00:31.17    \nframe=  146 fps=4.6 q=47.0 size=     256KiB time=00:00:02.43 bitrate= 861.8kbits/s speed=0.0767x elapsed=0:00:31.72    \nframe=  149 fps=4.6 q=48.0 size=     256KiB time=00:00:02.48 bitrate= 844.5kbits/s speed=0.077x elapsed=0:00:32.26    \nframe=  151 fps=4.6 q=48.0 size=     256KiB time=00:00:02.51 bitrate= 833.3kbits/s speed=0.0764x elapsed=0:00:32.93    \nframe=  153 fps=4.6 q=47.0 size=     256KiB time=00:00:02.55 bitrate= 822.4kbits/s speed=0.0761x elapsed=0:00:33.52    \nframe=  155 fps=4.6 q=47.0 size=     256KiB time=00:00:02.58 bitrate= 811.8kbits/s speed=0.0759x elapsed=0:00:34.03    \nframe=  158 fps=4.6 q=47.0 size=     256KiB time=00:00:02.63 bitrate= 796.4kbits/s speed=0.0762x elapsed=0:00:34.56    \nframe=  161 fps=4.6 q=47.0 size=     256KiB time=00:00:02.68 bitrate= 781.5kbits/s speed=0.0763x elapsed=0:00:35.14    \nframe=  163 fps=4.6 q=48.0 size=     256KiB time=00:00:02.71 bitrate= 772.0kbits/s speed=0.0761x elapsed=0:00:35.69    \nframe=  165 fps=4.6 q=48.0 size=     256KiB time=00:00:02.75 bitrate= 762.6kbits/s speed=0.0759x elapsed=0:00:36.23    \nframe=  169 fps=4.6 q=46.0 size=     256KiB time=00:00:02.81 bitrate= 744.6kbits/s speed=0.0766x elapsed=0:00:36.76    \nframe=  173 fps=4.6 q=47.0 size=     256KiB time=00:00:02.88 bitrate= 727.3kbits/s speed=0.0773x elapsed=0:00:37.30    \nframe=  176 fps=4.6 q=39.0 size=     256KiB time=00:00:02.93 bitrate= 714.9kbits/s speed=0.0775x elapsed=0:00:37.86    \nframe=  180 fps=4.7 q=46.0 size=     256KiB time=00:00:03.00 bitrate= 699.1kbits/s speed=0.0781x elapsed=0:00:38.40    \nframe=  185 fps=4.8 q=47.0 size=     256KiB time=00:00:03.06 bitrate= 683.9kbits/s speed=0.0788x elapsed=0:00:38.92    \nframe=  188 fps=4.8 q=39.0 size=     256KiB time=00:00:03.13 bitrate= 669.3kbits/s speed=0.0794x elapsed=0:00:39.44    \nframe=  192 fps=4.8 q=46.0 size=     256KiB time=00:00:03.20 bitrate= 655.4kbits/s speed=0.0801x elapsed=0:00:39.97    \nframe=  198 fps=4.9 q=47.0 size=     256KiB time=00:00:03.30 bitrate= 635.5kbits/s speed=0.0814x elapsed=0:00:40.52    \nframe=  201 fps=4.9 q=47.0 size=     256KiB time=00:00:03.35 bitrate= 626.0kbits/s speed=0.0816x elapsed=0:00:41.04    \nframe=  205 fps=4.9 q=46.0 size=     256KiB time=00:00:03.41 bitrate= 613.8kbits/s speed=0.0822x elapsed=0:00:41.56    \nframe=  210 fps=5.0 q=46.0 size=     256KiB time=00:00:03.50 bitrate= 599.2kbits/s speed=0.0832x elapsed=0:00:42.08    \nframe=  215 fps=5.0 q=45.0 size=     256KiB time=00:00:03.56 bitrate= 588.0kbits/s speed=0.0837x elapsed=0:00:42.60    \nframe=  219 fps=5.1 q=47.0 size=     256KiB time=00:00:03.65 bitrate= 574.6kbits/s speed=0.0846x elapsed=0:00:43.15    \nframe=  223 fps=5.1 q=47.0 size=     256KiB time=00:00:03.71 bitrate= 564.3kbits/s speed=0.0851x elapsed=0:00:43.66    \nframe=  228 fps=5.2 q=46.0 size=     256KiB time=00:00:03.80 bitrate= 551.9kbits/s speed=0.086x elapsed=0:00:44.19    \nframe=  232 fps=5.2 q=47.0 size=     256KiB time=00:00:03.86 bitrate= 542.4kbits/s speed=0.0865x elapsed=0:00:44.72    \nframe=  235 fps=5.2 q=47.0 size=     256KiB time=00:00:03.91 bitrate= 535.4kbits/s speed=0.0865x elapsed=0:00:45.28    \nframe=  241 fps=5.3 q=48.0 size=     256KiB time=00:00:04.01 bitrate= 522.1kbits/s speed=0.0876x elapsed=0:00:45.86    \nframe=  245 fps=5.3 q=48.0 size=     256KiB time=00:00:04.08 bitrate= 513.6kbits/s speed=0.088x elapsed=0:00:46.38    \nframe=  250 fps=5.3 q=48.0 size=     256KiB time=00:00:04.16 bitrate= 503.3kbits/s speed=0.0888x elapsed=0:00:46.94    \nframe=  255 fps=5.4 q=49.0 size=     256KiB time=00:00:04.25 bitrate= 493.4kbits/s speed=0.0896x elapsed=0:00:47.45    \nframe=  257 fps=5.4 q=38.0 size=     256KiB time=00:00:04.28 bitrate= 489.6kbits/s speed=0.0893x elapsed=0:00:47.96    \nframe=  262 fps=5.4 q=49.0 size=     768KiB time=00:00:04.36 bitrate=1440.8kbits/s speed=0.09x elapsed=0:00:48.50    \nframe=  268 fps=5.5 q=50.0 size=     768KiB time=00:00:04.46 bitrate=1408.5kbits/s speed=0.0911x elapsed=0:00:49.02    \nframe=  272 fps=5.5 q=48.0 size=     768KiB time=00:00:04.51 bitrate=1392.9kbits/s speed=0.0911x elapsed=0:00:49.57    \nframe=  276 fps=5.5 q=49.0 size=     768KiB time=00:00:04.60 bitrate=1367.7kbits/s speed=0.0917x elapsed=0:00:50.16    \nframe=  280 fps=5.5 q=49.0 size=     768KiB time=00:00:04.66 bitrate=1348.2kbits/s speed=0.0921x elapsed=0:00:50.68    \nframe=  284 fps=5.5 q=48.0 size=     768KiB time=00:00:04.73 bitrate=1329.2kbits/s speed=0.0923x elapsed=0:00:51.25    \nframe=  288 fps=5.6 q=49.0 size=     768KiB time=00:00:04.80 bitrate=1310.7kbits/s speed=0.0927x elapsed=0:00:51.78    \nframe=  292 fps=5.6 q=49.0 size=     768KiB time=00:00:04.86 bitrate=1292.8kbits/s speed=0.093x elapsed=0:00:52.32    \nframe=  296 fps=5.6 q=48.0 size=     768KiB time=00:00:04.93 bitrate=1275.3kbits/s speed=0.0933x elapsed=0:00:52.88    \nframe=  300 fps=5.6 q=49.0 size=     768KiB time=00:00:05.00 bitrate=1258.3kbits/s speed=0.0936x elapsed=0:00:53.40    \nframe=  304 fps=5.6 q=50.0 size=     768KiB time=00:00:05.06 bitrate=1241.7kbits/s speed=0.0939x elapsed=0:00:53.93    \nframe=  307 fps=5.6 q=48.0 size=     768KiB time=00:00:05.11 bitrate=1229.6kbits/s speed=0.0939x elapsed=0:00:54.46    \nframe=  312 fps=5.7 q=48.0 size=     768KiB time=00:00:05.20 bitrate=1209.9kbits/s speed=0.0944x elapsed=0:00:55.07    \nframe=  316 fps=5.7 q=49.0 size=     768KiB time=00:00:05.26 bitrate=1194.6kbits/s speed=0.0946x elapsed=0:00:55.64    \nframe=  319 fps=5.7 q=46.0 size=     768KiB time=00:00:05.31 bitrate=1183.3kbits/s speed=0.0945x elapsed=0:00:56.24    \nframe=  323 fps=5.7 q=48.0 size=     768KiB time=00:00:05.38 bitrate=1168.7kbits/s speed=0.0948x elapsed=0:00:56.78    \nframe=  326 fps=5.7 q=49.0 size=     768KiB time=00:00:05.43 bitrate=1157.9kbits/s speed=0.0948x elapsed=0:00:57.34    \nframe=  329 fps=5.7 q=39.0 size=     768KiB time=00:00:05.48 bitrate=1147.4kbits/s speed=0.0947x elapsed=0:00:57.92    \nframe=  334 fps=5.7 q=52.0 size=     768KiB time=00:00:05.56 bitrate=1130.2kbits/s speed=0.0952x elapsed=0:00:58.45    \nframe=  340 fps=5.8 q=54.0 size=     768KiB time=00:00:05.65 bitrate=1113.5kbits/s speed=0.0958x elapsed=0:00:59.00    \nframe=  344 fps=5.8 q=52.0 size=     768KiB time=00:00:05.73 bitrate=1097.3kbits/s speed=0.0961x elapsed=0:00:59.64    \nframe=  349 fps=5.8 q=53.0 size=     768KiB time=00:00:05.80 bitrate=1084.7kbits/s speed=0.0964x elapsed=0:01:00.19    \nframe=  352 fps=5.8 q=54.0 size=     768KiB time=00:00:05.86 bitrate=1072.4kbits/s speed=0.0965x elapsed=0:01:00.77    \nframe=  357 fps=5.8 q=51.0 size=     768KiB time=00:00:05.95 bitrate=1057.4kbits/s speed=0.097x elapsed=0:01:01.32    \nframe=  362 fps=5.8 q=51.0 size=     768KiB time=00:00:06.03 bitrate=1042.8kbits/s speed=0.0975x elapsed=0:01:01.88    \nframe=  366 fps=5.9 q=52.0 size=     768KiB time=00:00:06.10 bitrate=1031.4kbits/s speed=0.0977x elapsed=0:01:02.42    \nframe=  371 fps=5.9 q=50.0 size=     768KiB time=00:00:06.18 bitrate=1017.5kbits/s speed=0.0981x elapsed=0:01:03.00    \nframe=  374 fps=5.9 q=50.0 size=     768KiB time=00:00:06.23 bitrate=1009.3kbits/s speed=0.0981x elapsed=0:01:03.54    \nframe=  379 fps=5.9 q=49.0 size=     768KiB time=00:00:06.31 bitrate= 996.0kbits/s speed=0.0986x elapsed=0:01:04.09    \nframe=  382 fps=5.9 q=49.0 size=     768KiB time=00:00:06.36 bitrate= 988.2kbits/s speed=0.0985x elapsed=0:01:04.62    \nframe=  384 fps=5.9 q=50.0 size=     768KiB time=00:00:06.40 bitrate= 983.0kbits/s speed=0.0982x elapsed=0:01:05.15    \nframe=  388 fps=5.9 q=47.0 size=    1280KiB time=00:00:06.46 bitrate=1621.5kbits/s speed=0.0984x elapsed=0:01:05.73    \nframe=  392 fps=5.9 q=49.0 size=    1280KiB time=00:00:06.53 bitrate=1605.0kbits/s speed=0.0986x elapsed=0:01:06.28    \nframe=  396 fps=5.9 q=50.0 size=    1280KiB time=00:00:06.60 bitrate=1588.8kbits/s speed=0.0987x elapsed=0:01:06.86    \nframe=  400 fps=5.9 q=49.0 size=    1280KiB time=00:00:06.66 bitrate=1572.9kbits/s speed=0.0988x elapsed=0:01:07.45    \nframe=  404 fps=5.9 q=50.0 size=    1280KiB time=00:00:06.73 bitrate=1557.3kbits/s speed=0.099x elapsed=0:01:07.99    \nframe=  408 fps=6.0 q=51.0 size=    1280KiB time=00:00:06.80 bitrate=1542.0kbits/s speed=0.0992x elapsed=0:01:08.57    \nframe=  411 fps=5.9 q=48.0 size=    1280KiB time=00:00:06.85 bitrate=1530.8kbits/s speed=0.0991x elapsed=0:01:09.13    \nframe=  414 fps=5.9 q=49.0 size=    1280KiB time=00:00:06.90 bitrate=1519.7kbits/s speed=0.099x elapsed=0:01:09.67    \nframe=  418 fps=6.0 q=49.0 size=    1280KiB time=00:00:06.96 bitrate=1505.1kbits/s speed=0.0992x elapsed=0:01:10.22    \nframe=  420 fps=5.9 q=49.0 size=    1280KiB time=00:00:07.00 bitrate=1498.0kbits/s speed=0.0989x elapsed=0:01:10.80    \nframe=  424 fps=5.9 q=49.0 size=    1280KiB time=00:00:07.06 bitrate=1483.8kbits/s speed=0.099x elapsed=0:01:11.35    \nframe=  428 fps=6.0 q=49.0 size=    1280KiB time=00:00:07.13 bitrate=1470.0kbits/s speed=0.0992x elapsed=0:01:11.87    \nframe=  432 fps=6.0 q=49.0 size=    1280KiB time=00:00:07.18 bitrate=1459.7kbits/s speed=0.0992x elapsed=0:01:12.39    \nframe=  435 fps=6.0 q=47.0 size=    1280KiB time=00:00:07.25 bitrate=1446.3kbits/s speed=0.0993x elapsed=0:01:13.01    \nframe=  438 fps=6.0 q=48.0 size=    1280KiB time=00:00:07.30 bitrate=1436.4kbits/s speed=0.0992x elapsed=0:01:13.56    \nframe=  441 fps=5.9 q=48.0 size=    1280KiB time=00:00:07.35 bitrate=1426.6kbits/s speed=0.0991x elapsed=0:01:14.16    \nframe=  444 fps=5.9 q=49.0 size=    1280KiB time=00:00:07.40 bitrate=1417.0kbits/s speed=0.099x elapsed=0:01:14.72    \nframe=  448 fps=5.9 q=48.0 size=    1280KiB time=00:00:07.46 bitrate=1404.3kbits/s speed=0.0992x elapsed=0:01:15.30    \nframe=  452 fps=6.0 q=48.0 size=    1280KiB time=00:00:07.53 bitrate=1391.9kbits/s speed=0.0993x elapsed=0:01:15.87    \nframe=  456 fps=6.0 q=50.0 size=    1280KiB time=00:00:07.60 bitrate=1379.7kbits/s speed=0.0994x elapsed=0:01:16.44    \nframe=  459 fps=6.0 q=49.0 size=    1280KiB time=00:00:07.65 bitrate=1370.7kbits/s speed=0.0993x elapsed=0:01:17.02    \nframe=  463 fps=6.0 q=50.0 size=    1280KiB time=00:00:07.71 bitrate=1358.8kbits/s speed=0.0995x elapsed=0:01:17.54    \nframe=  468 fps=6.0 q=52.0 size=    1280KiB time=00:00:07.80 bitrate=1344.3kbits/s speed=0.0999x elapsed=0:01:18.08    \nframe=  471 fps=6.0 q=49.0 size=    1280KiB time=00:00:07.85 bitrate=1335.8kbits/s speed=0.0999x elapsed=0:01:18.60    \nframe=  475 fps=6.0 q=51.0 size=    1280KiB time=00:00:07.91 bitrate=1324.5kbits/s speed= 0.1x elapsed=0:01:19.18    \nframe=  480 fps=6.0 q=51.0 size=    1280KiB time=00:00:08.00 bitrate=1310.7kbits/s speed= 0.1x elapsed=0:01:19.77    \nframe=  484 fps=6.0 q=50.0 size=    1280KiB time=00:00:08.06 bitrate=1299.9kbits/s speed= 0.1x elapsed=0:01:20.34    \nframe=  489 fps=6.0 q=52.0 size=    1280KiB time=00:00:08.15 bitrate=1286.6kbits/s speed=0.101x elapsed=0:01:20.90    \nframe=  492 fps=6.0 q=52.0 size=    1280KiB time=00:00:08.20 bitrate=1278.8kbits/s speed=0.101x elapsed=0:01:21.51    \nframe=  498 fps=6.1 q=52.0 size=    1280KiB time=00:00:08.30 bitrate=1263.3kbits/s speed=0.101x elapsed=0:01:22.04    \nframe=  502 fps=6.1 q=53.0 size=    1280KiB time=00:00:08.36 bitrate=1253.3kbits/s speed=0.101x elapsed=0:01:22.62    \nframe=  506 fps=6.1 q=52.0 size=    1280KiB time=00:00:08.43 bitrate=1243.4kbits/s speed=0.101x elapsed=0:01:23.14    \nframe=  512 fps=6.1 q=53.0 size=    1280KiB time=00:00:08.53 bitrate=1228.8kbits/s speed=0.102x elapsed=0:01:23.68    \nframe=  515 fps=6.1 q=51.0 size=    1792KiB time=00:00:08.58 bitrate=1710.3kbits/s speed=0.102x elapsed=0:01:24.37    \nframe=  521 fps=6.1 q=53.0 size=    1792KiB time=00:00:08.68 bitrate=1690.6kbits/s speed=0.102x elapsed=0:01:24.97    \nframe=  525 fps=6.1 q=55.0 size=    1792KiB time=00:00:08.75 bitrate=1677.7kbits/s speed=0.102x elapsed=0:01:25.52    \nframe=  530 fps=6.2 q=53.0 size=    1792KiB time=00:00:08.83 bitrate=1661.9kbits/s speed=0.103x elapsed=0:01:26.06    \nframe=  534 fps=6.2 q=55.0 size=    1792KiB time=00:00:08.90 bitrate=1649.4kbits/s speed=0.103x elapsed=0:01:26.64    \nframe=  539 fps=6.2 q=52.0 size=    1792KiB time=00:00:08.98 bitrate=1634.1kbits/s speed=0.103x elapsed=0:01:27.22    \nframe=  544 fps=6.2 q=52.0 size=    1792KiB time=00:00:09.06 bitrate=1619.1kbits/s speed=0.103x elapsed=0:01:27.77    \nframe=  548 fps=6.2 q=52.0 size=    1792KiB time=00:00:09.11 bitrate=1610.2kbits/s speed=0.103x elapsed=0:01:28.33    \nframe=  553 fps=6.2 q=50.0 size=    1792KiB time=00:00:09.20 bitrate=1595.7kbits/s speed=0.103x elapsed=0:01:28.88    \nframe=  557 fps=6.2 q=50.0 size=    1792KiB time=00:00:09.28 bitrate=1581.3kbits/s speed=0.104x elapsed=0:01:29.42    \nframe=  560 fps=6.2 q=52.0 size=    1792KiB time=00:00:09.33 bitrate=1572.9kbits/s speed=0.104x elapsed=0:01:29.95    \nframe=  565 fps=6.2 q=50.0 size=    1792KiB time=00:00:09.41 bitrate=1558.9kbits/s speed=0.104x elapsed=0:01:30.52    \nframe=  569 fps=6.2 q=50.0 size=    1792KiB time=00:00:09.48 bitrate=1548.0kbits/s speed=0.104x elapsed=0:01:31.10    \nframe=  574 fps=6.3 q=49.0 size=    1792KiB time=00:00:09.55 bitrate=1537.2kbits/s speed=0.104x elapsed=0:01:31.64    \nframe=  576 fps=6.2 q=49.0 size=    1792KiB time=00:00:09.60 bitrate=1529.2kbits/s speed=0.104x elapsed=0:01:32.27    \nframe=  576 fps=6.2 q=49.0 size=    1792KiB time=00:00:09.60 bitrate=1529.2kbits/s speed=0.103x elapsed=0:01:32.79    \nframe=  576 fps=6.2 q=49.0 size=    1792KiB time=00:00:09.60 bitrate=1529.2kbits/s speed=0.103x elapsed=0:01:33.31    \nframe=  576 fps=6.1 q=49.0 size=    1792KiB time=00:00:09.60 bitrate=1529.2kbits/s speed=0.102x elapsed=0:01:33.90    \nframe=  576 fps=6.1 q=49.0 size=    1792KiB time=00:00:09.60 bitrate=1529.2kbits/s speed=0.102x elapsed=0:01:34.41    \nframe=  576 fps=6.1 q=49.0 size=    1792KiB time=00:00:09.60 bitrate=1529.2kbits/s speed=0.101x elapsed=0:01:34.97    \n[out#0/webm @ 000002318c699b80] video:2230KiB audio:0KiB subtitle:0KiB other streams:0KiB global headers:0KiB muxing overhead: 0.212789%\nframe=  600 fps=6.3 q=50.0 Lsize=    2235KiB time=00:00:10.00 bitrate=1831.0kbits/s speed=0.105x elapsed=0:01:35.09    \n",
  "seconds": 95.34083652496338,
  "probe_out": {}
}